<svg width="56" height="64" viewBox="0 0 56 64" fill="none" xmlns="http://www.w3.org/2000/svg">
<path d="M27.2937 0.999756C47.2866 0.999756 62.8877 27.8153 52.8912 44.9975C42.8948 62.1797 -10.0715 77.3732 1.69611 44.9975C13.4637 12.6218 7.30073 0.999756 27.2937 0.999756Z" fill="#6A4DF4" fill-opacity="0.1"/>
<path d="M5.40641 30.6304H3.41195V19.1576C3.41145 8.59388 12.1058 6.10352e-05 22.792 6.10352e-05C33.4793 6.10352e-05 42.1741 8.59388 42.1741 19.1576V20.6091H40.1787V19.1576C40.1787 9.69385 32.3788 1.99452 22.792 1.99452C13.2052 1.99452 5.40641 9.69385 5.40641 19.1576V30.6304ZM44.5456 63.8302H42.5506V53.9184C42.5506 51.3355 40.0837 49.2345 37.0507 49.2345H8.53484C5.50191 49.2345 3.03346 51.3355 3.03346 53.9184V63.8302H1.039V53.9184C1.039 50.2355 4.40193 47.24 8.53484 47.24H37.0502C41.1831 47.24 44.5451 50.2355 44.5451 53.9184V63.8302H44.5456Z" fill="#6A4DF4"/>
<path d="M23.168 45.9691C15.8907 45.9691 9.55429 41.1072 7.75883 34.1454L9.68979 33.6469C11.2588 39.7278 16.8011 43.9747 23.168 43.9747C30.8368 43.9747 37.0757 37.8168 37.0757 30.247V19.0912H39.0702V30.2475C39.0707 38.9168 31.9368 45.9691 23.168 45.9691ZM9.1443 20.9212H7.14984V19.7187C7.14984 17.1733 9.2403 15.1028 11.8087 15.1028H37.2452C40.3986 15.1028 42.9636 12.5739 42.9636 9.46643V5.03652H32.9618V3.04156H44.958V9.46643C44.958 13.6743 41.4981 17.0978 37.2452 17.0978H11.8087C10.3398 17.0978 9.1443 18.2737 9.1443 19.7192V20.9212Z" fill="#6A4DF4"/>
<path d="M5.31688 36.4496H4.98539C2.23645 36.4496 0 34.2357 0 31.5142V24.2934C0 21.5719 2.23645 19.3575 4.98539 19.3575H5.31688C8.06533 19.3575 10.3018 21.5719 10.3018 24.2934V31.5142C10.3018 34.2362 8.06533 36.4496 5.31688 36.4496ZM4.98539 21.3524C3.33643 21.3524 1.99496 22.6719 1.99496 24.2934V31.5142C1.99496 33.1357 3.33693 34.4552 4.98539 34.4552H5.31688C6.96585 34.4552 8.30682 33.1357 8.30682 31.5142V24.2934C8.30682 22.6719 6.96535 21.3524 5.31688 21.3524H4.98539ZM39.9616 36.4496H39.6316C38.5582 36.4538 37.5123 36.11 36.6507 35.4696L37.8402 33.8687C38.3581 34.253 38.9867 34.4588 39.6316 34.4552H39.9616C41.6116 34.4552 42.9526 33.1357 42.9526 31.5142V24.2934C42.9526 22.6719 41.6111 21.3524 39.9616 21.3524H39.6316C39.1916 21.3508 38.7565 21.4459 38.3572 21.6309L37.5167 19.822C38.1789 19.5141 38.9008 19.3557 39.6311 19.358H39.9611C42.7106 19.358 44.9475 21.5724 44.9475 24.2939V31.5142C44.9475 34.2362 42.7111 36.4496 39.9616 36.4496Z" fill="#6A4DF4"/>
<path d="M5.40638 30.6304H3.41193V19.1576C3.41143 8.59388 12.1057 6.10352e-05 22.792 6.10352e-05V1.99452C13.2052 1.99452 5.40638 9.69385 5.40638 19.1576V30.6304ZM25.3255 53.6424H19.6886L17.1546 49.306L18.8766 48.3005L20.833 51.6479H24.181L26.1379 48.3L27.8604 49.3065L25.3255 53.6424Z" fill="#6A4DF4"/>
<path d="M25.414 52.4509L27.3379 63.6626L25.372 64.0001L23.448 52.7884L25.414 52.4509ZM19.5981 52.4464L21.5641 52.7834L19.6426 63.9961L17.6766 63.6591L19.5981 52.4464ZM37.3107 40.4646H25.9275V38.4702H37.3107C38.8922 38.4702 40.1786 37.2052 40.1786 35.6492H42.1736C42.1741 38.3042 39.9917 40.4646 37.3107 40.4646ZM22.6915 25.0255H24.686V32.8763H22.6915V25.0255Z" fill="#6A4DF4"/>
</svg>
