<svg width="59" height="65" viewBox="0 0 59 65" fill="none" xmlns="http://www.w3.org/2000/svg">
<path d="M27.2937 2.00024C47.2866 2.00024 62.8877 28.8158 52.8912 45.998C42.8948 63.1801 -10.0715 78.3736 1.69611 45.998C13.4637 13.6223 7.30073 2.00024 27.2937 2.00024Z" fill="#13B237" fill-opacity="0.1"/>
<path fill-rule="evenodd" clip-rule="evenodd" d="M31.177 56.2794L31.175 56.3026C31.0156 57.6892 29.9727 58.4247 28.5494 58.4396L28.4851 58.9964C28.4374 59.4099 28.0631 59.7076 27.6469 59.6597C27.2303 59.6129 26.9329 59.2391 26.9806 58.8252L27.0516 58.2067C26.353 57.9915 25.6903 57.6357 25.1286 57.1304C24.9506 56.9728 24.8449 56.7098 24.8765 56.4404C24.9266 55.9904 25.3289 55.6845 25.7802 55.7347C26.0055 55.761 26.1549 55.8568 26.2579 55.948C26.8082 56.4549 27.4303 56.7997 28.1999 56.8872C28.9111 56.9682 29.373 56.7353 29.4267 56.2751L29.4283 56.2519C29.4788 55.8144 29.2334 55.558 27.9506 55.0699C26.405 54.4844 25.4263 53.9284 25.6063 52.3643L25.6086 52.3419C25.7483 51.1249 26.6883 50.3612 27.962 50.2736L28.0287 49.6877C28.0764 49.273 28.4512 48.9754 28.867 49.0225C29.2839 49.0696 29.5818 49.4438 29.534 49.8585L29.4654 50.4503C30.0749 50.6219 30.6145 50.8952 31.0761 51.2675C31.2559 51.4006 31.4215 51.6594 31.3829 51.9967C31.3312 52.4468 30.9293 52.7554 30.4776 52.7039C30.3071 52.6847 30.1766 52.6234 30.0516 52.5292C29.5127 52.1267 28.9924 51.873 28.4496 51.8114C27.7842 51.7356 27.3987 52.0002 27.355 52.3815L27.3526 52.4043C27.2931 52.9215 27.6114 53.1289 28.9391 53.6326C30.495 54.2299 31.3348 54.9077 31.177 56.2794Z" fill="#13B237"/>
<path d="M23.7723 16.3095C20.5425 17.9333 16.6358 21.8751 13.2223 26.7536C10.6457 30.4362 8.37312 34.6309 6.90393 38.7497C10.8035 36.4 15.0028 35.3454 19.0818 35.3768C23.421 35.4101 27.6194 36.6701 31.1744 38.9052C34.7396 41.1466 37.6648 44.3705 39.446 48.3242C41.2433 52.3138 41.8722 57.0321 40.8137 62.2143C44.3447 61.6252 47.0691 60.1279 49.0297 58.0171C51.3359 55.534 52.6227 52.1712 52.9503 48.4137C53.2851 44.5752 52.6202 40.345 51.0197 36.2178C48.2594 29.0998 42.7305 22.3041 34.7564 18.3397L33.2585 17.5949L34.4205 16.3965C34.5846 16.2272 34.6733 16.0883 34.7045 15.9746C34.7303 15.8807 34.7106 15.7765 34.6636 15.6712C34.5786 15.4808 34.4188 15.2864 34.2305 15.1047C33.6847 14.5782 33.0737 14.2585 32.9508 14.225L31.4289 13.8095L32.207 12.4445C33.0125 11.0316 33.845 9.49468 34.6101 7.93963C35.3712 6.39277 36.083 4.79291 36.6614 3.22618C36.9148 2.54215 37.8091 2.5634 37.5009 2.44984C37.404 2.41412 35.9743 3.33438 34.2946 4.41577C31.0929 6.47696 27.1779 8.99716 24.6587 7.58224L24.6566 7.58595C23.0072 6.66109 22.2172 5.19406 21.5342 3.92552C21.116 3.14903 20.7624 2.49215 20.4951 2.449V2.45153H20.4763L20.4667 2.44674C20.2563 2.44475 19.9358 2.57409 19.4578 2.88216C18.8376 3.2817 18.0666 3.93184 17.0944 4.89802L17.0968 4.90039C15.4009 6.59183 15.9431 8.23391 17.3458 9.65477C19.0938 11.4253 22.0197 12.9384 24.2887 13.9597L23.948 16.2857L23.7723 16.3095H23.7723ZM11.2166 25.356C13.6917 21.8186 16.4505 18.7245 19.0941 16.5408L19.0721 16.54C18.479 16.5181 17.9288 16.4875 17.4288 16.447C17.2815 16.4354 17.2518 16.4332 17.226 16.4314C16.5358 16.3823 15.4632 16.306 14.5452 15.9503C13.8285 19.3351 12.0228 20.464 9.69543 20.2831C7.45737 20.1089 4.81059 18.4675 2.3349 16.5698L3.82244 14.6362C5.9782 16.2887 8.21189 17.7125 9.87781 17.8421C11.091 17.9364 12.0238 17.0311 12.3258 14.3249C12.2495 13.8286 12.4433 13.4044 12.7778 13.0934C12.9248 12.9567 13.1003 12.8519 13.2896 12.7832C13.4559 12.7229 13.6375 12.6912 13.8207 12.6918C14.3852 12.6939 14.9646 12.9794 15.2307 13.6386C15.3514 13.8448 16.7069 13.9413 17.3987 13.9905C17.5274 13.9996 17.6012 14.0045 17.6208 14.006C18.1815 14.0515 18.6916 14.0818 19.1585 14.0991L19.2252 14.1014C17.883 13.2974 16.5973 12.3792 15.5992 11.3681C13.2329 8.97124 12.3621 6.15744 15.3598 3.16779H15.3646C16.4674 2.07163 17.3727 1.31424 18.1334 0.824144C19.0325 0.24476 19.7952 0.00158891 20.4764 0.00572408V0.000976562H20.4951L20.5191 0.00576264C22.2263 0.0423283 22.8968 1.2874 23.6936 2.76725C24.2199 3.74469 24.8286 4.87512 25.8562 5.45129V5.45611C27.0841 6.14695 30.3222 4.0624 32.9702 2.35776C35.2042 0.919521 37.1055 -0.304376 38.3454 0.152523C39.5012 0.578369 39.8254 1.74472 38.9647 4.06849C38.3701 5.67899 37.6196 7.36174 36.8078 9.01167C36.1993 10.2485 35.5659 11.4471 34.9439 12.5712C35.2777 12.7891 35.625 13.05 35.9292 13.3434C36.3219 13.7222 36.6733 14.1684 36.8997 14.6756C37.1642 15.268 37.2565 15.9194 37.0654 16.6159C37.0523 16.6636 37.038 16.711 37.0225 16.758C44.9502 21.078 50.4778 28.0498 53.3037 35.337C55.0423 39.8205 55.7634 44.4292 55.3976 48.6242C55.0248 52.9003 53.5245 56.7659 50.8243 59.673C48.1485 62.5539 44.33 64.4632 39.3076 64.8626L37.5682 65.001L38.0263 63.3215C39.4693 58.0318 38.9849 53.26 37.2099 49.3197C35.6341 45.8221 33.038 42.9649 29.8692 40.9727C26.6903 38.9741 22.9415 37.8474 19.0721 37.8177C14.4685 37.7823 9.68695 39.297 5.479 42.7391L3.51161 41.5043C4.84928 36.0769 7.77718 30.2715 11.2166 25.356H11.2166Z" fill="#13B237"/>
<path d="M27.1449 62.8937L27.1407 62.8932L27.1407 62.8926C24.7736 62.621 22.7393 61.4198 21.3633 59.6967C19.9872 57.9734 19.2707 55.7287 19.5399 53.3716V53.3621L19.5404 53.3579L19.541 53.3579C19.8132 50.9984 21.0198 48.9723 22.7507 47.6032C24.4839 46.2324 26.7414 45.5195 29.1121 45.7892H29.1169L29.1203 45.7896L29.1203 45.7902C31.4877 46.0618 33.5218 47.2624 34.8971 48.9848C36.2731 50.708 36.9889 52.9536 36.7191 55.3137V55.3185L36.7187 55.3219L36.7181 55.3219C36.4459 57.6814 35.2396 59.7086 33.5088 61.0786C31.7765 62.4498 29.5198 63.1633 27.1497 62.8936H27.1449V62.8937ZM27.4286 60.4618L27.4328 60.4623L27.4328 60.4628C29.13 60.6546 30.7445 60.1444 31.9828 59.1641C33.2229 58.1826 34.087 56.73 34.2811 55.0395V55.0347L34.2814 55.0314H34.2819C34.4735 53.3441 33.9614 51.7388 32.9776 50.5068C31.9933 49.2741 30.5355 48.4149 28.8372 48.221H28.8324L28.829 48.2206V48.2201C27.1308 48.0282 25.5154 48.5379 24.2767 49.5177C23.0364 50.4986 22.172 51.9503 21.9781 53.6402V53.645L21.9776 53.6492L21.9766 53.6491C21.7864 55.3373 22.2991 56.9429 23.2828 58.1747C24.2677 59.4081 25.7258 60.268 27.4237 60.4618H27.4285H27.4286Z" fill="#13B237"/>
<path fill-rule="evenodd" clip-rule="evenodd" d="M19.0637 50.3654L19.0617 50.3886C18.9023 51.7752 17.8594 52.5107 16.4361 52.5256L16.3718 53.0824C16.324 53.4959 15.9497 53.7936 15.5336 53.7457C15.117 53.6989 14.8195 53.3251 14.8673 52.9112L14.9383 52.2927C14.2396 52.0775 13.5769 51.7217 13.0152 51.2164C12.8373 51.0588 12.7315 50.7958 12.7631 50.5264C12.8132 50.0764 13.2156 49.7705 13.6669 49.8207C13.8921 49.847 14.0416 49.9428 14.1446 50.034C14.6949 50.5409 15.317 50.8857 16.0865 50.9732C16.7978 51.0542 17.2597 50.8213 17.3134 50.3611L17.315 50.3379C17.3655 49.9004 17.1201 49.644 15.8373 49.1559C14.2917 48.5704 13.313 48.0144 13.4929 46.4503L13.4953 46.4279C13.6349 45.2109 14.575 44.4472 15.8487 44.3596L15.9154 43.7737C15.9631 43.359 16.3379 43.0614 16.7536 43.1085C17.1706 43.1556 17.4684 43.5298 17.4207 43.9445L17.352 44.5363C17.9615 44.7079 18.5011 44.9812 18.9627 45.3535C19.1425 45.4866 19.3082 45.7454 19.2696 46.0827C19.2179 46.5328 18.8159 46.8413 18.3643 46.7899C18.1938 46.7707 18.0633 46.7094 17.9383 46.6152C17.3994 46.2127 16.8791 45.959 16.3363 45.8974C15.6708 45.8216 15.2854 46.0862 15.2416 46.4675L15.2392 46.4903C15.1797 47.0075 15.498 47.2149 16.8258 47.7186C18.3816 48.3159 19.2215 48.9937 19.0637 50.3654Z" fill="#13B237"/>
<path d="M15.0317 56.9802L15.0275 56.9797L15.0276 56.9792C12.6604 56.7075 10.6261 55.5063 9.25018 53.7833C7.87405 52.0599 7.15757 49.8152 7.42675 47.4582V47.4486L7.42725 47.4444L7.42783 47.4445C7.7 45.085 8.90661 43.0589 10.6375 41.6897C12.3707 40.319 14.6283 39.6061 16.999 39.8758H17.0038L17.0072 39.8762L17.0071 39.8768C19.3746 40.1484 21.4086 41.349 22.7839 43.0714C23.3485 43.7781 23.7983 44.5688 24.1167 45.4148C23.3632 45.7201 22.6467 46.1222 21.9875 46.6436L21.9531 46.6711C21.7257 45.9102 21.3534 45.2056 20.8645 44.5934C19.8801 43.3607 18.4223 42.5015 16.724 42.3075H16.7192L16.7159 42.3072V42.3067C15.0176 42.1148 13.4023 42.6244 12.1635 43.6043C10.9233 44.5852 10.0589 46.0369 9.86493 47.7268V47.7316L9.86443 47.7358L9.86343 47.7357C9.67326 49.4239 10.186 51.0295 11.1696 52.2613C12.1545 53.4947 13.6126 54.3546 15.3106 54.5484H15.3154L15.3196 54.5489L15.3196 54.5494C16.3781 54.669 17.4044 54.5156 18.3274 54.1453C18.3624 54.9838 18.458 55.8198 18.6381 56.6321C17.5096 56.9906 16.2889 57.1227 15.0365 56.9802H15.0317H15.0317Z" fill="#13B237"/>
</svg>
